<?xml version="1.0" encoding="iso-8859-1"?>
<!-- Generator: Adobe Illustrator 19.0.0, SVG Export Plug-In . SVG Version: 6.00 Build 0)  -->
<svg version="1.1" id="Layer_1" xmlns="http://www.w3.org/2000/svg" xmlns:xlink="http://www.w3.org/1999/xlink" x="0px" y="0px"
	 viewBox="0 0 512 512" style="enable-background:new 0 0 512 512;" xml:space="preserve">
<g>
	<path style="fill:#C7CFE2;" d="M397.241,48.552L397.241,48.552c-4.875,0-8.828,3.953-8.828,8.828v25.379h17.655V57.379
		C406.069,52.504,402.116,48.552,397.241,48.552z"/>
	<path style="fill:#C7CFE2;" d="M88.276,48.552L88.276,48.552c-4.875,0-8.828,3.953-8.828,8.828v25.379h17.655V57.379
		C97.103,52.504,93.151,48.552,88.276,48.552z"/>
</g>
<path style="fill:#AFB9D2;" d="M406.069,233.931v44.138c0,4.875,3.953,8.828,8.828,8.828s8.828-3.953,8.828-8.828v-44.138H406.069z"
	/>
<g>
	<path style="fill:#D7DEED;" d="M52.966,463.448h414.897c4.875,0,8.828-3.953,8.828-8.828v-17.655H44.138v17.655
		C44.138,459.496,48.09,463.448,52.966,463.448z"/>
	<path style="fill:#D7DEED;" d="M8.828,110.345c-4.875,0-8.828,3.953-8.828,8.828v70.621c0,4.875,3.953,8.828,8.828,8.828H35.31
		v-88.276H8.828z"/>
</g>
<path style="fill:#E4EAF6;" d="M476.69,295.724H229.517c-14.626,0-26.483-11.857-26.483-26.483v-52.965
	c0-14.626,11.857-26.483,26.483-26.483h114.759l21.603,43.206c2.99,5.982,9.103,9.76,15.791,9.76h59.709
	c9.751,0,17.655-7.904,17.655-17.655V110.345c0-19.501-15.809-35.31-35.31-35.31H44.138c-9.751,0-17.655,7.904-17.655,17.655
	v335.448c0,9.751,7.904,17.655,17.655,17.655H476.69c19.501,0,35.31-15.809,35.31-35.31v-79.448
	C512,311.533,496.191,295.724,476.69,295.724z"/>
<rect x="388.414" y="75.034" style="fill:#D7DEED;" width="17.655" height="123.586"/>
<circle style="fill:#00C8F0;" cx="114.759" cy="242.759" r="44.138"/>
<path style="fill:#00AFD7;" d="M142.957,279.832c-2.263,0-4.522-0.862-6.246-2.591L80.316,220.75
	c-3.444-3.453-3.439-9.038,0.009-12.483c3.453-3.444,9.038-3.444,12.483,0.009l56.396,56.491c3.444,3.453,3.439,9.038-0.009,12.483
	C147.47,278.969,145.216,279.832,142.957,279.832z"/>
<path style="fill:#D7DEED;" d="M146.759,331.034h-64c-6.703,0-12.138,5.434-12.138,12.138v28.69c0,6.703,5.434,12.138,12.138,12.138
	h64c6.703,0,12.138-5.434,12.138-12.138v-28.69C158.897,336.469,153.462,331.034,146.759,331.034z"/>
<path style="fill:#00C8F0;" d="M370.759,75.034H61.793V128c0,14.626,11.857,26.483,26.483,26.483h256
	c14.626,0,26.483-11.857,26.483-26.483V75.034z"/>
<path style="fill:#AFB9D2;" d="M450.207,322.207h-70.621c-4.875,0-8.828-3.953-8.828-8.828v-17.655h88.276v17.655
	C459.034,318.254,455.082,322.207,450.207,322.207z"/>
<path style="fill:#D7DEED;" d="M441.379,198.621V79.932c-5.212-3.033-11.19-4.897-17.655-4.897v123.586H441.379z"/>
<circle style="fill:#AFB9D2;" cx="414.897" cy="198.621" r="26.483"/>
<path style="fill:#FFFFFF;" d="M145.655,331.034H83.862c-7.313,0-13.241,5.929-13.241,13.241l0,0
	c0,7.313,5.929,13.241,13.241,13.241h61.793c7.313,0,13.241-5.929,13.241-13.241l0,0
	C158.897,336.963,152.968,331.034,145.655,331.034z"/>
<path style="fill:#00AFD7;" d="M63.415,136.828c3.648,10.262,13.347,17.655,24.861,17.655h256c11.514,0,21.213-7.393,24.861-17.655
	H63.415z"/>
<g>
</g>
<g>
</g>
<g>
</g>
<g>
</g>
<g>
</g>
<g>
</g>
<g>
</g>
<g>
</g>
<g>
</g>
<g>
</g>
<g>
</g>
<g>
</g>
<g>
</g>
<g>
</g>
<g>
</g>
</svg>
