<?xml version="1.0" encoding="iso-8859-1"?>
<!-- Generator: Adobe Illustrator 19.0.0, SVG Export Plug-In . SVG Version: 6.00 Build 0)  -->
<svg version="1.1" id="Layer_1" xmlns="http://www.w3.org/2000/svg" xmlns:xlink="http://www.w3.org/1999/xlink" x="0px" y="0px"
	 viewBox="0 0 512 512" style="enable-background:new 0 0 512 512;" xml:space="preserve">
<g>
	<path style="fill:#C69666;" d="M353.103,185.378H194.207V35.309c0-4.873,3.955-8.828,8.828-8.828h141.241
		c4.873,0,8.828,3.955,8.828,8.828V185.378z"/>
	<path style="fill:#FBD077;" d="M0,379.585v69.941c0,5.252,4.255,9.507,9.507,9.507h34.631c0-24.373,19.765-44.138,44.138-44.138
		s44.138,19.765,44.138,44.138h247.172c0-24.373,19.765-44.138,44.138-44.138c24.373,0,44.138,19.765,44.138,44.138h34.639
		c5.244,0,9.498-4.255,9.498-9.507v-69.941H0z"/>
	<path style="fill:#E2B566;" d="M512,379.585H0v-25.812c0-5.244,4.255-9.498,9.507-9.498h492.994c5.244,0,9.498,4.255,9.498,9.498
		V379.585z"/>
	<path style="fill:#FBD077;" d="M13.046,20.368L13.046,20.368C5.781,25.214,3.68,34.96,8.306,42.366L32.529,81.11
		c7.583,12.138,11.608,26.165,11.608,40.483v222.685h35.31V113.984c0-15.078-4.467-29.82-12.826-42.372L35.442,24.843
		C30.49,17.428,20.47,15.424,13.046,20.368"/>
	<path style="fill:#896745;" d="M273.655,344.275H114.759V194.206c0-4.873,3.955-8.828,8.828-8.828h150.069V344.275z"/>
	<polygon style="fill:#E8D5B2;" points="167.724,238.344 220.69,238.344 220.69,185.378 167.724,185.378 	"/>
	<path style="fill:#A98258;" d="M432.552,344.275H273.655V185.378h150.069c4.873,0,8.828,3.955,8.828,8.828V344.275z"/>
	<g>
		<polygon style="fill:#E8D5B2;" points="326.621,238.344 379.586,238.344 379.586,185.378 326.621,185.378 		"/>
		<polygon style="fill:#E8D5B2;" points="247.172,79.447 300.138,79.447 300.138,26.482 247.172,26.482 		"/>
	</g>
	<g>
		<path style="fill:#605F5E;" d="M132.414,450.206c0-24.373-19.765-44.138-44.138-44.138s-44.138,19.765-44.138,44.138
			s19.765,44.138,44.138,44.138S132.414,474.579,132.414,450.206"/>
		<path style="fill:#605F5E;" d="M467.862,450.206c0-24.373-19.765-44.138-44.138-44.138c-24.373,0-44.138,19.765-44.138,44.138
			s19.765,44.138,44.138,44.138C448.097,494.344,467.862,474.579,467.862,450.206"/>
	</g>
</g>
<g>
</g>
<g>
</g>
<g>
</g>
<g>
</g>
<g>
</g>
<g>
</g>
<g>
</g>
<g>
</g>
<g>
</g>
<g>
</g>
<g>
</g>
<g>
</g>
<g>
</g>
<g>
</g>
<g>
</g>
</svg>
