<?xml version="1.0" encoding="iso-8859-1"?>
<!-- Generator: Adobe Illustrator 19.0.0, SVG Export Plug-In . SVG Version: 6.00 Build 0)  -->
<svg version="1.1" id="Capa_1" xmlns="http://www.w3.org/2000/svg" xmlns:xlink="http://www.w3.org/1999/xlink" x="0px" y="0px"
	 viewBox="0 0 474.537 474.537" style="enable-background:new 0 0 474.537 474.537;" xml:space="preserve">
<path style="fill:#2B3953;" d="M131.751,163.81c10.1,79.418,1.268,157.257-28.904,233.119h268.851
	c-22.789-120.524-31.815-202.437-27.396-262.319c1.526-20.674-15.541-37.876-36.217-36.385l-130.495,9.409
	C148.997,109.697,128.135,135.371,131.751,163.81z"/>
<path style="fill:#D5D6DB;" d="M428.113,353.592v120.944H46.423v-119.82c0-17.296,11.364-32.656,27.973-37.526
	c7.368-2.186,14.548-5.183,21.292-9.054l41.647-23.789l58.38-23.977h83.793l56.008,23.977l43.707,24.351
	c4.933,2.748,11.988,5.058,19.231,6.869C415.875,320.063,428.113,335.672,428.113,353.592z"/>
<path style="fill:#FFD763;" d="M195.853,188.929v139.706c0,38.203,13.877,81.37,40.89,108.383
	c27.014-27.014,43.489-70.181,43.489-108.383V188.929H195.853z"/>
<rect x="184.663" y="335.61" style="fill:#F37658;" width="100.839" height="107.37"/>
<ellipse style="fill:#FCD25A;" cx="237.262" cy="123.798" rx="109.787" ry="123.798"/>
<path style="fill:#2B3953;" d="M347.072,123.259c-36.402-7.181-67.746-24.538-82.232-59.879
	c-17.545,49.827-66.498,78.111-133.183,94.158c-2.747-10.739-4.183-22.041-4.183-33.717c0-68.371,49.139-123.817,109.768-123.817
	C297.683,0.004,346.822,55.138,347.072,123.259z"/>
<polygon style="fill:#D5D6DB;" points="300.176,381.627 300.176,474.537 169.803,474.537 169.803,381.627 223.875,381.627 
	236.738,437.011 250.162,381.627 "/>
<g>
	<path style="fill:#EBF0F3;" d="M236.738,437.011l-58.568-55.383l-28.223-26.662l19.668-40.149c0,0-31.594-26.723-32.281-30.469
		l58.38-23.977l0,0l28.16,121.257L236.738,437.011z"/>
	<path style="fill:#EBF0F3;" d="M304.609,315.941l19.044,40.46l-27.223,25.226l-59.692,55.383l13.424-55.383l29.346-121.257l0,0
		l56.008,23.977C335.079,288.905,304.609,315.941,304.609,315.941z"/>
</g>
<g>
</g>
<g>
</g>
<g>
</g>
<g>
</g>
<g>
</g>
<g>
</g>
<g>
</g>
<g>
</g>
<g>
</g>
<g>
</g>
<g>
</g>
<g>
</g>
<g>
</g>
<g>
</g>
<g>
</g>
</svg>
