<?xml version="1.0" encoding="iso-8859-1"?>
<!-- Generator: Adobe Illustrator 18.0.0, SVG Export Plug-In . SVG Version: 6.00 Build 0)  -->
<!DOCTYPE svg PUBLIC "-//W3C//DTD SVG 1.1//EN" "http://www.w3.org/Graphics/SVG/1.1/DTD/svg11.dtd">
<svg version="1.1" id="Capa_1" xmlns="http://www.w3.org/2000/svg" xmlns:xlink="http://www.w3.org/1999/xlink" x="0px" y="0px"
	 viewBox="0 0 58 58" style="enable-background:new 0 0 58 58;" xml:space="preserve">
<g>
	<polygon style="fill:#E5E5DA;" points="0,8.5 0,8.604 0,49.371 0,49.5 0.129,49.5 57.541,49.5 57.871,49.5 58,49.5 58,49.371 
		58,8.604 58,8.5 	"/>
	<path style="fill:#D1D0BF;" d="M0,8.501l27.139,27.267c1.049,0.976,2.674,0.976,3.723,0L58,8.5L0,8.501z"/>
	<path style="fill:#C4C2A5;" d="M0,48.209V9.791c0-0.529,0.606-0.829,1.027-0.508L21,29.5L1.027,48.718
		C0.606,49.038,0,48.738,0,48.209z"/>
	<path style="fill:#C4C2A5;" d="M58,48.209V9.791c0-0.529-0.606-0.829-1.027-0.508L37,29.5l19.973,19.218
		C57.394,49.038,58,48.738,58,48.209z"/>
</g>
<g>
</g>
<g>
</g>
<g>
</g>
<g>
</g>
<g>
</g>
<g>
</g>
<g>
</g>
<g>
</g>
<g>
</g>
<g>
</g>
<g>
</g>
<g>
</g>
<g>
</g>
<g>
</g>
<g>
</g>
</svg>
