<?xml version="1.0" encoding="iso-8859-1"?>
<!-- Generator: Adobe Illustrator 19.0.0, SVG Export Plug-In . SVG Version: 6.00 Build 0)  -->
<svg version="1.1" id="Capa_1" xmlns="http://www.w3.org/2000/svg" xmlns:xlink="http://www.w3.org/1999/xlink" x="0px" y="0px"
	 viewBox="0 0 512.002 512.002" style="enable-background:new 0 0 512.002 512.002;" xml:space="preserve">
<path style="fill:#303C42;" d="M509.896,68.303c-2.021-2.708-5.188-4.302-8.563-4.302h-26.542
	c-19.406,0-37.729-10.302-47.813-26.875C413.042,14.23,387.74,0.001,360.938,0.001h-155.75c-16.292,0-31.385,9.49-38.542,24.354
	L3.042,381.043C1.094,385.178,0,389.803,0,394.668v85.333c0,17.646,14.354,32,32,32h170.667c14.315,0,26.319-9.509,30.396-22.496
	l0.135,0.038l23.565-83.719c8.923,8.574,15.921,19.283,20.029,31.604l2.188,6.563c13.552,40.677,51.469,68.01,94.354,68.01
	c4.708,0,8.865-3.094,10.219-7.604l128-426.667C512.521,74.501,511.906,71.001,509.896,68.303z"/>
<path style="fill:#9B51A0;" d="M202.667,490.668H32c-5.885,0-10.667-4.781-10.667-10.667v-85.333c0-1.49,0.313-2.906,0.865-4.198
	l0.208-0.458c1.729-3.552,5.385-6.01,9.594-6.01h28.319l-11.544,34.685c-3.802,5.263-6.108,11.673-6.108,18.648
	c0,17.646,14.354,32,32,32h106.667c4.74,0,8.917-3.125,10.24-7.677l10.198-34.99h0.896c5.885,0,10.667,4.781,10.667,10.667v42.667
	C213.333,485.887,208.552,490.668,202.667,490.668z"/>
<path style="opacity:0.1;fill:#010101;enable-background:new    ;" d="M202.667,490.668H32c-5.885,0-10.667-4.781-10.667-10.667
	v-85.333c0-1.49,0.313-2.906,0.865-4.198l0.208-0.458c1.729-3.552,5.385-6.01,9.594-6.01h28.319l-11.544,34.685
	c-3.802,5.263-6.108,11.673-6.108,18.648c0,17.646,14.354,32,32,32h106.667c4.74,0,8.917-3.125,10.24-7.677l10.198-34.99h0.896
	c5.885,0,10.667,4.781,10.667,10.667v42.667C213.333,485.887,208.552,490.668,202.667,490.668z"/>
<path style="fill:#9B51A0;" d="M74.667,426.668h104.885l-6.219,21.333H74.667c-5.885,0-10.667-4.781-10.667-10.667
	C64,431.449,68.781,426.668,74.667,426.668z"/>
<path style="opacity:0.2;fill:#010101;enable-background:new    ;" d="M74.667,426.668h104.885l-6.219,21.333H74.667
	c-5.885,0-10.667-4.781-10.667-10.667C64,431.449,68.781,426.668,74.667,426.668z"/>
<path style="fill:#9B51A0;" d="M230.225,421.354c-5.548-9.529-15.759-16.02-27.559-16.02H75.708l7.1-21.333h119.858
	c12.716,0,24.867,3.073,35.652,8.602L230.225,421.354z"/>
<path style="opacity:0.15;fill:#010101;enable-background:new    ;" d="M230.225,421.354c-5.548-9.529-15.759-16.02-27.559-16.02
	H75.708l7.1-21.333h119.858c12.716,0,24.867,3.073,35.652,8.602L230.225,421.354z"/>
<path style="fill:#9B51A0;" d="M365.51,490.282c-30.396-3.031-56.479-23.583-66.302-53.042l-2.188-6.563
	c-13.552-40.677-51.469-68.01-94.354-68.01H34.948l151.01-329.24c3.531-7.344,11.083-12.094,19.229-12.094h155.75
	c19.406,0,37.729,10.302,47.813,26.875c13.938,22.896,39.24,37.125,66.042,37.125H487L365.51,490.282z"/>
<path style="opacity:0.2;fill:#FFFFFF;enable-background:new    ;" d="M203.855,54.761c3.615-7.344,11.344-12.094,19.682-12.094
	h159.426c9.379,0,18.436,2.457,26.549,6.626c-0.238-0.375-0.531-0.704-0.763-1.085c-10.083-16.573-28.406-26.875-47.813-26.875
	h-155.75c-8.146,0-15.698,4.75-19.229,12.094l-151.01,329.24h24.349L203.855,54.761z"/>
<linearGradient id="SVGID_1_" gradientUnits="userSpaceOnUse" x1="-31.2884" y1="636.9778" x2="-23.6912" y2="629.3835" gradientTransform="matrix(21.3333 0 0 -21.3333 996.3115 13791.6914)">
	<stop  offset="0" style="stop-color:#010101;stop-opacity:0.1"/>
	<stop  offset="1" style="stop-color:#010101;stop-opacity:0"/>
</linearGradient>
<path style="fill:url(#SVGID_1_);" d="M474.792,85.334c-8.387,0-16.573-1.539-24.363-4.155l-99.305,331.003
	c-6.923,23.076-31.195,33.185-51.178,26.827c10.276,28.479,35.802,48.305,65.565,51.273L487,85.334H474.792z"/>
<g>
	<path style="fill:#303C42;" d="M288.188,291.73c-5.573-2.021-11.656,0.896-13.625,6.458l-17.938,50.229
		c-1.99,5.542,0.906,11.646,6.458,13.625c1.177,0.427,2.396,0.625,3.583,0.625c4.385,0,8.49-2.719,10.042-7.083l17.938-50.229
		C296.635,299.814,293.74,293.709,288.188,291.73z"/>
	<path style="fill:#303C42;" d="M339.667,147.584c-5.521-2.042-11.656,0.906-13.625,6.458l-32.177,90.094
		c-1.99,5.542,0.906,11.646,6.458,13.625c1.177,0.427,2.396,0.625,3.583,0.625c4.385,0,8.49-2.719,10.042-7.083l32.177-90.094
		C348.115,155.668,345.219,149.564,339.667,147.584z"/>
	<path style="fill:#303C42;" d="M376.917,43.293c-5.521-2.021-11.656,0.896-13.625,6.458L345.354,99.98
		c-1.99,5.542,0.906,11.646,6.458,13.625c1.177,0.427,2.396,0.625,3.583,0.625c4.385,0,8.49-2.719,10.042-7.083l17.938-50.229
		C385.365,51.376,382.469,45.272,376.917,43.293z"/>
</g>
<linearGradient id="SVGID_2_" gradientUnits="userSpaceOnUse" x1="-42.7586" y1="637.0493" x2="-25.7835" y2="629.1332" gradientTransform="matrix(21.3333 0 0 -21.3333 996.3115 13791.6914)">
	<stop  offset="0" style="stop-color:#FFFFFF;stop-opacity:0.2"/>
	<stop  offset="1" style="stop-color:#FFFFFF;stop-opacity:0"/>
</linearGradient>
<path style="fill:url(#SVGID_2_);" d="M509.896,68.303c-2.021-2.708-5.188-4.302-8.563-4.302h-26.542
	c-19.406,0-37.729-10.302-47.813-26.875C413.042,14.23,387.74,0.001,360.938,0.001h-155.75c-16.292,0-31.385,9.49-38.542,24.354
	L3.042,381.043C1.094,385.178,0,389.803,0,394.668v85.333c0,17.646,14.354,32,32,32h170.667c14.315,0,26.319-9.509,30.396-22.496
	l0.135,0.038l23.565-83.719c8.923,8.574,15.921,19.283,20.029,31.604l2.188,6.563c13.552,40.677,51.469,68.01,94.354,68.01
	c4.708,0,8.865-3.094,10.219-7.604l128-426.667C512.521,74.501,511.906,71.001,509.896,68.303z"/>
<g>
</g>
<g>
</g>
<g>
</g>
<g>
</g>
<g>
</g>
<g>
</g>
<g>
</g>
<g>
</g>
<g>
</g>
<g>
</g>
<g>
</g>
<g>
</g>
<g>
</g>
<g>
</g>
<g>
</g>
</svg>
