<?xml version="1.0" encoding="iso-8859-1"?>
<!-- Generator: Adobe Illustrator 19.0.0, SVG Export Plug-In . SVG Version: 6.00 Build 0)  -->
<svg version="1.1" id="Capa_1" xmlns="http://www.w3.org/2000/svg" xmlns:xlink="http://www.w3.org/1999/xlink" x="0px" y="0px"
	 viewBox="0 0 512 512" style="enable-background:new 0 0 512 512;" xml:space="preserve">
<g>
	<path style="fill:#285680;" d="M35.31,0H476.69C496.191,0,512,15.809,512,35.31V476.69c0,19.501-15.809,35.31-35.31,35.31H35.31
		C15.809,512,0,496.191,0,476.69V35.31C0,15.809,15.809,0,35.31,0z"/>
	<path style="fill:#4482C3;" d="M79.448,459.034H0V105.931h79.448c-7.027-0.009-13.768,2.778-18.737,7.746
		c-4.969,4.969-7.756,11.71-7.746,18.737v300.138c-0.009,7.027,2.778,13.768,7.746,18.736
		C65.68,456.257,72.422,459.044,79.448,459.034L79.448,459.034z"/>
	<path style="fill:#B0D3F0;" d="M79.448,105.931h353.103c14.626,0,26.483,11.857,26.483,26.483v300.138
		c0,14.626-11.857,26.483-26.483,26.483H79.448c-14.626,0-26.483-11.857-26.483-26.483V132.414
		C52.966,117.788,64.822,105.931,79.448,105.931z"/>
	<path style="fill:#4482C3;" d="M512,105.931v353.103h-79.448c7.027,0.009,13.768-2.778,18.736-7.746
		c4.969-4.969,7.756-11.71,7.746-18.736V132.414c0.009-7.027-2.778-13.768-7.746-18.737c-4.969-4.969-11.71-7.756-18.736-7.746H512z
		"/>
	<path style="fill:#8697CB;" d="M455.15,446.323c-4.757,7.933-13.349,12.765-22.599,12.712H79.448
		c-9.25,0.054-17.841-4.779-22.599-12.712l61.528-61.528c3.321-3.332,7.831-5.206,12.535-5.208h250.174
		c4.704,0.002,9.214,1.876,12.535,5.208L455.15,446.323z"/>
	<rect x="158.897" style="fill:#4482C3;" width="194.207" height="105.931"/>
	<g>
		<path style="fill:#90BAE1;" d="M211.862,44.138h-17.655c-4.875,0-8.828-3.952-8.828-8.828s3.952-8.828,8.828-8.828h17.655
			c4.875,0,8.828,3.952,8.828,8.828S216.737,44.138,211.862,44.138z"/>
		<path style="fill:#90BAE1;" d="M211.862,79.448h-17.655c-4.875,0-8.828-3.952-8.828-8.828s3.952-8.828,8.828-8.828h17.655
			c4.875,0,8.828,3.952,8.828,8.828S216.737,79.448,211.862,79.448z"/>
		<path style="fill:#90BAE1;" d="M264.828,44.138h-17.655c-4.875,0-8.828-3.952-8.828-8.828s3.952-8.828,8.828-8.828h17.655
			c4.875,0,8.828,3.952,8.828,8.828S269.703,44.138,264.828,44.138z"/>
		<path style="fill:#90BAE1;" d="M264.828,79.448h-17.655c-4.875,0-8.828-3.952-8.828-8.828s3.952-8.828,8.828-8.828h17.655
			c4.875,0,8.828,3.952,8.828,8.828S269.703,79.448,264.828,79.448z"/>
		<path style="fill:#90BAE1;" d="M317.793,44.138h-17.655c-4.875,0-8.828-3.952-8.828-8.828s3.952-8.828,8.828-8.828h17.655
			c4.875,0,8.828,3.952,8.828,8.828S322.668,44.138,317.793,44.138z"/>
		<path style="fill:#90BAE1;" d="M317.793,79.448h-17.655c-4.875,0-8.828-3.952-8.828-8.828s3.952-8.828,8.828-8.828h17.655
			c4.875,0,8.828,3.952,8.828,8.828S322.668,79.448,317.793,79.448z"/>
	</g>
	<g>
		<path style="fill:#D75E72;" d="M185.379,423.724c-5.026-0.157-8.975-4.353-8.828-9.379v-131.31
			c-0.199-3.282,1.438-6.403,4.252-8.104c2.813-1.701,6.338-1.701,9.152,0c2.813,1.701,4.451,4.822,4.252,8.104v131.31
			C194.354,419.371,190.405,423.567,185.379,423.724z"/>
		<path style="fill:#D75E72;" d="M185.379,268.966c-5.109-0.25-9.055-4.582-8.828-9.692V133.278
			c-0.314-3.351,1.297-6.59,4.158-8.363s6.479-1.773,9.339,0s4.471,5.012,4.158,8.363v125.995
			C194.434,264.383,190.488,268.716,185.379,268.966z"/>
		<path style="fill:#D75E72;" d="M256,423.724c-5.026-0.157-8.975-4.353-8.828-9.379v-131.31c-0.199-3.282,1.438-6.403,4.252-8.104
			c2.813-1.701,6.338-1.701,9.151,0c2.813,1.701,4.451,4.822,4.252,8.104v131.31C264.975,419.371,261.026,423.567,256,423.724z"/>
		<path style="fill:#D75E72;" d="M256,273.655c-5.191-0.345-9.132-4.811-8.828-10.005v-130.06c-0.429-3.418,1.154-6.776,4.063-8.621
			c2.909-1.845,6.621-1.845,9.53,0c2.909,1.845,4.491,5.203,4.063,8.621v130.06C265.132,268.844,261.191,273.31,256,273.655z"/>
		<path style="fill:#D75E72;" d="M326.621,423.724c-5.153-0.301-9.097-4.707-8.828-9.862V275.793
			c-0.376-3.388,1.219-6.692,4.106-8.504c2.887-1.812,6.556-1.812,9.443,0s4.482,5.116,4.106,8.504v138.069
			C335.718,419.017,331.774,423.423,326.621,423.724z"/>
		<path style="fill:#D75E72;" d="M326.621,273.655c-5.191-0.345-9.132-4.811-8.828-10.005v-130.06
			c-0.429-3.418,1.154-6.776,4.063-8.621c2.909-1.845,6.621-1.845,9.53,0c2.909,1.845,4.491,5.203,4.063,8.621v130.06
			C335.752,268.844,331.811,273.31,326.621,273.655L326.621,273.655z"/>
	</g>
	<rect x="167.724" y="105.931" style="fill:#B49ACA;" width="176.552" height="35.31"/>
	<path style="fill:#D75E72;" d="M353.103,423.724H158.897c-4.875,0-8.828-3.952-8.828-8.828s3.952-8.828,8.828-8.828h194.207
		c4.875,0,8.828,3.952,8.828,8.828S357.979,423.724,353.103,423.724z"/>
	<path style="fill:#556080;" d="M176.552,256h158.897c4.875,0,8.828,3.952,8.828,8.828v17.655c0,4.875-3.952,8.828-8.828,8.828
		H176.552c-4.875,0-8.828-3.952-8.828-8.828v-17.655C167.724,259.952,171.676,256,176.552,256z"/>
</g>
<g>
</g>
<g>
</g>
<g>
</g>
<g>
</g>
<g>
</g>
<g>
</g>
<g>
</g>
<g>
</g>
<g>
</g>
<g>
</g>
<g>
</g>
<g>
</g>
<g>
</g>
<g>
</g>
<g>
</g>
</svg>
