<?xml version="1.0" encoding="iso-8859-1"?>
<!-- Generator: Adobe Illustrator 19.0.0, SVG Export Plug-In . SVG Version: 6.00 Build 0)  -->
<svg version="1.1" id="Layer_1" xmlns="http://www.w3.org/2000/svg" xmlns:xlink="http://www.w3.org/1999/xlink" x="0px" y="0px"
	 viewBox="0 0 512 512" style="enable-background:new 0 0 512 512;" xml:space="preserve">
<path style="fill:#DAEFBB;" d="M350.609,511.391H161.391l82.783-167.043h23.652L350.609,511.391z"/>
<path style="fill:#687B40;" d="M247.652,436.87v-44.522c0-4.61,3.738-8.348,8.348-8.348s8.348,3.738,8.348,8.348v44.522
	c0,4.61-3.738,8.348-8.348,8.348S247.652,441.48,247.652,436.87z M411.826,495.304H264.348v-25.043c0-4.61-3.738-8.348-8.348-8.348
	s-8.348,3.738-8.348,8.348v25.043H100.174c-4.61,0-8.348,3.738-8.348,8.348S95.564,512,100.174,512h311.652
	c4.61,0,8.348-3.738,8.348-8.348S416.436,495.304,411.826,495.304z"/>
<path style="fill:#6D6D6D;" d="M333.913,111.304H178.087V33.391h155.826V111.304z"/>
<path style="fill:#444444;" d="M333.913,111.304h-44.522V33.391h44.522V111.304z"/>
<path style="fill:#BFBFBF;" d="M356.174,122.435v66.783c0,12.295-9.966,22.261-22.261,22.261v22.261H178.087v-22.261
	c-12.295,0-22.261-9.966-22.261-22.261v-66.783c0-12.295,9.966-22.261,22.261-22.261h155.826
	C346.208,100.174,356.174,110.14,356.174,122.435z"/>
<path style="fill:#E2E2E2;" d="M233.739,211.478h-44.522V100.174h44.522V211.478z"/>
<path style="fill:#999999;" d="M378.435,11.13v22.261c0,6.147-4.983,11.13-11.13,11.13H144.696c-6.147,0-11.13-4.983-11.13-11.13
	V11.13c0-6.147,4.983-11.13,11.13-11.13h222.609C373.452,0,378.435,4.983,378.435,11.13z M333.913,100.174h-44.522v111.304h44.522
	c12.295,0,22.261-9.966,22.261-22.261v-66.783C356.174,110.14,346.208,100.174,333.913,100.174z"/>
<path style="fill:#BFBFBF;" d="M289.391,44.522H144.696c-6.147,0-11.13-4.983-11.13-11.13V11.13c0-6.147,4.983-11.13,11.13-11.13
	h144.696V44.522z"/>
<path style="fill:#D9B166;" d="M322.783,233.739V256l-50.675,101.349c-3.051,6.101-9.286,9.955-16.108,9.955
	c-6.822,0-13.057-3.854-16.108-9.955L189.217,256v-22.261H322.783z"/>
<path style="fill:#BC8E50;" d="M333.913,211.478v33.391c0,6.147-4.983,11.13-11.13,11.13l-50.675,101.349
	c-3.051,6.101-9.286,9.955-16.108,9.955c-6.822,0-13.057-3.854-16.108-9.955l-0.588-1.175L289.391,256H189.217
	c-6.147,0-11.13-4.983-11.13-11.13v-33.391H333.913z"/>
<path style="fill:#996633;" d="M333.913,211.478v33.391c0,6.147-4.983,11.13-11.13,11.13h-33.391v-44.522H333.913z"/>
<g>
</g>
<g>
</g>
<g>
</g>
<g>
</g>
<g>
</g>
<g>
</g>
<g>
</g>
<g>
</g>
<g>
</g>
<g>
</g>
<g>
</g>
<g>
</g>
<g>
</g>
<g>
</g>
<g>
</g>
</svg>
